<?xml version="1.0" encoding="UTF-8"?>
<!DOCTYPE svg PUBLIC "-//W3C//DTD SVG 1.1//EN" "http://www.w3.org/Graphics/SVG/1.1/DTD/svg11.dtd">
<svg xmlns="http://www.w3.org/2000/svg" xmlns:xlink="http://www.w3.org/1999/xlink" version="1.1" width="340px" height="324px" viewBox="-0.5 -0.5 340 324"><defs/><g><ellipse cx="19" cy="155.25" rx="10" ry="10" fill="#000000" stroke="#000000" stroke-width="12" transform="rotate(-15,19,155.25)" pointer-events="all"/><ellipse cx="125" cy="303.25" rx="10" ry="10" fill="#000000" stroke="#000000" stroke-width="12" transform="rotate(-15,125,303.25)" pointer-events="all"/><ellipse cx="142" cy="19.25" rx="10" ry="10" fill="#000000" stroke="#000000" stroke-width="12" transform="rotate(-15,142,19.25)" pointer-events="all"/><ellipse cx="319" cy="75.25" rx="10" ry="10" fill="#000000" stroke="#000000" stroke-width="12" transform="rotate(-15,319,75.25)" pointer-events="all"/><ellipse cx="302" cy="256.25" rx="10" ry="10" fill="#000000" stroke="#000000" stroke-width="12" transform="rotate(-15,302,256.25)" pointer-events="all"/><ellipse cx="163" cy="96.25" rx="10" ry="10" fill="#000000" stroke="#000000" stroke-width="12" transform="rotate(-15,163,96.25)" pointer-events="all"/><ellipse cx="108" cy="163.25" rx="10" ry="10" fill="#000000" stroke="#000000" stroke-width="12" transform="rotate(-15,108,163.25)" pointer-events="all"/><ellipse cx="154" cy="233.25" rx="10" ry="10" fill="#000000" stroke="#000000" stroke-width="12" transform="rotate(-15,154,233.25)" pointer-events="all"/><ellipse cx="247" cy="125.25" rx="10" ry="10" fill="#000000" stroke="#000000" stroke-width="12" transform="rotate(-15,247,125.25)" pointer-events="all"/><ellipse cx="241" cy="210.25" rx="10" ry="10" fill="#000000" stroke="#000000" stroke-width="12" transform="rotate(-15,241,210.25)" pointer-events="all"/><path d="M 28.96 156.13 L 98.04 162.4" fill="none" stroke="#000000" stroke-width="12" stroke-miterlimit="10" pointer-events="stroke"/><path d="M 144.59 28.91 L 160.41 86.59" fill="none" stroke="#000000" stroke-width="12" stroke-miterlimit="10" pointer-events="stroke"/><path d="M 310.77 80.93 L 255.24 119.59" fill="none" stroke="#000000" stroke-width="12" stroke-miterlimit="10" pointer-events="stroke"/><path d="M 294.06 250.17 L 248.99 216.26" fill="none" stroke="#000000" stroke-width="12" stroke-miterlimit="10" pointer-events="stroke"/><path d="M 128.84 294.02 L 150.18 242.49" fill="none" stroke="#000000" stroke-width="12" stroke-miterlimit="10" pointer-events="stroke"/><path d="M 154.6 223.27 L 162.35 106.23" fill="none" stroke="#000000" stroke-width="12" stroke-miterlimit="10" pointer-events="stroke"/><path d="M 235.37 201.99 L 168.61 104.53" fill="none" stroke="#000000" stroke-width="12" stroke-miterlimit="10" pointer-events="stroke"/><path d="M 117.66 160.66 L 237.34 127.84" fill="none" stroke="#000000" stroke-width="12" stroke-miterlimit="10" pointer-events="stroke"/><path d="M 240.46 132.82 L 160.51 225.66" fill="none" stroke="#000000" stroke-width="12" stroke-miterlimit="10" pointer-events="stroke"/><path d="M 231.57 206.93 L 117.44 166.55" fill="none" stroke="#000000" stroke-width="12" stroke-miterlimit="10" pointer-events="stroke"/><path d="M 25.7 147.82 L 135.27 26.65" fill="none" stroke="#000000" stroke-width="12" stroke-miterlimit="10" pointer-events="stroke"/><path d="M 309.46 72.26 L 151.54 22.24" fill="none" stroke="#000000" stroke-width="12" stroke-miterlimit="10" pointer-events="stroke"/><path d="M 302.89 246.29 L 318.07 85.21" fill="none" stroke="#000000" stroke-width="12" stroke-miterlimit="10" pointer-events="stroke"/><path d="M 119.2 295.1 L 24.83 163.38" fill="none" stroke="#000000" stroke-width="12" stroke-miterlimit="10" pointer-events="stroke"/><path d="M 134.66 300.66 L 292.34 258.84" fill="none" stroke="#000000" stroke-width="12" stroke-miterlimit="10" pointer-events="stroke"/></g></svg>