<?xml version="1.0" encoding="UTF-8"?>
<!DOCTYPE svg PUBLIC "-//W3C//DTD SVG 1.1//EN" "http://www.w3.org/Graphics/SVG/1.1/DTD/svg11.dtd">
<svg xmlns="http://www.w3.org/2000/svg" xmlns:xlink="http://www.w3.org/1999/xlink" version="1.1" width="332px" height="316px" viewBox="-0.5 -0.5 332 316"><defs/><g><ellipse cx="15" cy="151" rx="10" ry="10" fill="none" stroke="#ffffff" stroke-width="6" transform="rotate(-15,15,151)" pointer-events="all"/><ellipse cx="121" cy="299" rx="10" ry="10" fill="none" stroke="#ffffff" stroke-width="6" transform="rotate(-15,121,299)" pointer-events="all"/><ellipse cx="138" cy="15" rx="10" ry="10" fill="none" stroke="#ffffff" stroke-width="6" transform="rotate(-15,138,15)" pointer-events="all"/><ellipse cx="315" cy="71" rx="10" ry="10" fill="none" stroke="#ffffff" stroke-width="6" transform="rotate(-15,315,71)" pointer-events="all"/><ellipse cx="298" cy="252" rx="10" ry="10" fill="none" stroke="#ffffff" stroke-width="6" transform="rotate(-15,298,252)" pointer-events="all"/><ellipse cx="159" cy="92" rx="10" ry="10" fill="none" stroke="#ffffff" stroke-width="6" transform="rotate(-15,159,92)" pointer-events="all"/><ellipse cx="104" cy="159" rx="10" ry="10" fill="none" stroke="#ffffff" stroke-width="6" transform="rotate(-15,104,159)" pointer-events="all"/><ellipse cx="150" cy="229" rx="10" ry="10" fill="none" stroke="#ffffff" stroke-width="6" transform="rotate(-15,150,229)" pointer-events="all"/><ellipse cx="243" cy="121" rx="10" ry="10" fill="none" stroke="#ffffff" stroke-width="6" transform="rotate(-15,243,121)" pointer-events="all"/><ellipse cx="237" cy="206" rx="10" ry="10" fill="none" stroke="#ffffff" stroke-width="6" transform="rotate(-15,237,206)" pointer-events="all"/><path d="M 24.96 151.88 L 94.04 158.15" fill="none" stroke="#ffffff" stroke-width="6" stroke-miterlimit="10" pointer-events="stroke"/><path d="M 140.59 24.66 L 156.41 82.34" fill="none" stroke="#ffffff" stroke-width="6" stroke-miterlimit="10" pointer-events="stroke"/><path d="M 306.77 76.68 L 251.24 115.34" fill="none" stroke="#ffffff" stroke-width="6" stroke-miterlimit="10" pointer-events="stroke"/><path d="M 290.06 245.92 L 244.99 212.01" fill="none" stroke="#ffffff" stroke-width="6" stroke-miterlimit="10" pointer-events="stroke"/><path d="M 124.84 289.77 L 146.18 238.24" fill="none" stroke="#ffffff" stroke-width="6" stroke-miterlimit="10" pointer-events="stroke"/><path d="M 150.6 219.02 L 158.35 101.98" fill="none" stroke="#ffffff" stroke-width="6" stroke-miterlimit="10" pointer-events="stroke"/><path d="M 231.37 197.74 L 164.61 100.28" fill="none" stroke="#ffffff" stroke-width="6" stroke-miterlimit="10" pointer-events="stroke"/><path d="M 113.66 156.41 L 233.34 123.59" fill="none" stroke="#ffffff" stroke-width="6" stroke-miterlimit="10" pointer-events="stroke"/><path d="M 236.46 128.57 L 156.51 221.41" fill="none" stroke="#ffffff" stroke-width="6" stroke-miterlimit="10" pointer-events="stroke"/><path d="M 227.57 202.68 L 113.44 162.3" fill="none" stroke="#ffffff" stroke-width="6" stroke-miterlimit="10" pointer-events="stroke"/><path d="M 21.7 143.57 L 131.27 22.4" fill="none" stroke="#ffffff" stroke-width="6" stroke-miterlimit="10" pointer-events="stroke"/><path d="M 305.46 68.01 L 147.54 17.99" fill="none" stroke="#ffffff" stroke-width="6" stroke-miterlimit="10" pointer-events="stroke"/><path d="M 298.89 242.04 L 314.07 80.96" fill="none" stroke="#ffffff" stroke-width="6" stroke-miterlimit="10" pointer-events="stroke"/><path d="M 115.2 290.85 L 20.83 159.13" fill="none" stroke="#ffffff" stroke-width="6" stroke-miterlimit="10" pointer-events="stroke"/><path d="M 130.66 296.41 L 288.34 254.59" fill="none" stroke="#ffffff" stroke-width="6" stroke-miterlimit="10" pointer-events="stroke"/></g></svg>